<svg width="20" height="20" viewBox="0 0 20 20" fill="none" xmlns="http://www.w3.org/2000/svg">
<g opacity="0.4">
<path d="M19.0236 10.0261V9.64522C19.0236 8.94354 18.6604 8.32545 18.1123 7.96803V3.81302C18.1123 2.71982 17.2229 1.83044 16.1297 1.83044H3.87027C2.77707 1.83044 1.88766 2.71982 1.88766 3.81302V7.96799C1.33961 8.32541 0.976328 8.9435 0.976328 9.64518V10.0261C0.415156 10.1739 0 10.6856 0 11.2925V15.7494C0 16.4506 0.553984 17.0247 1.24723 17.0573V17.5848C1.24723 17.9077 1.50906 18.1696 1.83203 18.1696C2.155 18.1696 2.41684 17.9077 2.41684 17.5848V17.0589H17.5831V17.5848C17.5831 17.9077 17.845 18.1696 18.1679 18.1696C18.4909 18.1696 18.7527 17.9077 18.7527 17.5848V17.0573C19.446 17.0246 20 16.4505 20 15.7494V11.2925C20 10.6855 19.5848 10.1739 19.0236 10.0261ZM3.0573 3.81302C3.0573 3.36474 3.42199 3.00005 3.87027 3.00005H16.1297C16.578 3.00005 16.9427 3.36474 16.9427 3.81302V7.64377H16.1629V6.61299C16.1629 5.8915 15.576 5.30451 14.8545 5.30451H11.7077C10.9862 5.30451 10.3992 5.8915 10.3992 6.61299V7.64377H9.60082V6.61299C9.60082 5.8915 9.01383 5.30451 8.29234 5.30451H5.14555C4.42402 5.30451 3.83707 5.8915 3.83707 6.61299V7.64377H3.0573V3.81302ZM14.9933 6.61295V7.5049C14.9933 7.58147 14.931 7.64373 14.8545 7.64373H11.7077C11.6311 7.64373 11.5688 7.58143 11.5688 7.5049V6.61295C11.5688 6.53639 11.6311 6.47412 11.7077 6.47412H14.8545C14.931 6.47412 14.9933 6.53639 14.9933 6.61295ZM8.43117 6.61295V7.5049C8.43117 7.58147 8.36887 7.64373 8.29234 7.64373H5.14555C5.06898 7.64373 5.00672 7.58143 5.00672 7.5049V6.61295C5.00672 6.53639 5.06902 6.47412 5.14555 6.47412H8.29234C8.36887 6.47412 8.43117 6.53639 8.43117 6.61295ZM2.14598 9.64518C2.14598 9.18651 2.51914 8.81338 2.97781 8.81338H17.0222C17.4809 8.81338 17.854 9.18655 17.854 9.64518V9.98299H2.14598V9.64518ZM18.8304 15.7494C18.8304 15.8265 18.7676 15.8892 18.6905 15.8892H1.30949C1.23238 15.8892 1.16961 15.8265 1.16961 15.7494V11.2925C1.16961 11.2154 1.23234 11.1527 1.30949 11.1527H18.6905C18.7676 11.1527 18.8304 11.2154 18.8304 11.2925V15.7494H18.8304Z" fill="black"/>
</g>
</svg>
