<svg width="16" height="18" viewBox="0 0 16 18" fill="none" xmlns="http://www.w3.org/2000/svg">
<path d="M14.7789 0H1.22266C0.931422 0 0.695312 0.236109 0.695312 0.527344V17.4727C0.695312 17.6859 0.823808 17.8782 1.02086 17.9599C1.21791 18.0414 1.44474 17.9963 1.59556 17.8455L8.00078 11.4403L14.406 17.8455C14.5568 17.9963 14.7836 18.0414 14.9807 17.9599C15.1777 17.8782 15.3062 17.6859 15.3062 17.4727V0.527344C15.3062 0.236109 15.0701 0 14.7789 0ZM14.2515 16.1995L8.37368 10.3217C8.2707 10.2187 8.13574 10.1672 8.00081 10.1672C7.86588 10.1672 7.73088 10.2187 7.62794 10.3217L1.75 16.1995V1.05469H14.2515V16.1995Z" fill="black"/>
</svg>
