<svg width="20" height="20" viewBox="0 0 20 20" fill="none" xmlns="http://www.w3.org/2000/svg">
<path d="M19.5049 4.06863C19.7745 4.06863 19.9951 3.84804 20 3.57843V0.495098C20 0.220588 19.7794 0 19.5049 0H16.4216C16.152 0 15.9314 0.220588 15.9314 0.495098V1.56863H4.06863V0.495098C4.06863 0.22549 3.84804 0.00490196 3.57843 0H0.495098C0.22549 0 0.00490196 0.220588 0 0.495098V3.57843C0 3.84804 0.220588 4.06863 0.495098 4.06863H1.56863V15.9314H0.495098C0.22549 15.9314 0.00490196 16.152 0 16.4216V19.5049C0 19.7745 0.220588 19.9951 0.495098 20H3.57843C3.84804 20 4.06863 19.7794 4.06863 19.5049V18.4314H15.9314V19.5049C15.9314 19.7745 16.152 19.9951 16.4216 20H19.5049C19.7745 20 19.9951 19.7794 20 19.5049V16.4216C20 16.152 19.7794 15.9314 19.5049 15.9314H18.4314V4.06863H19.5049ZM0.980392 3.08824V0.980392H3.08824V3.08824H0.980392ZM3.08824 19.0196H0.980392V16.9118H3.08824V19.0196ZM15.9314 16.4216V17.451H4.06863V16.4216C4.06863 16.152 3.84804 15.9314 3.57843 15.9314H2.54902V4.06863H3.57843C3.84804 4.06863 4.06863 3.84804 4.06863 3.57843V2.54902H15.9314V3.57843C15.9314 3.84804 16.152 4.06863 16.4216 4.06863H17.451V15.9314H16.4216C16.152 15.9314 15.9314 16.152 15.9314 16.4216ZM19.0196 16.9118V19.0196H16.9118V16.9118H19.0196ZM16.9118 3.08824V0.980392H19.0196V3.08824H16.9118Z" fill="black"/>
</svg>
