<svg width="18" height="18" viewBox="0 0 18 18" fill="none" xmlns="http://www.w3.org/2000/svg">
<path d="M12.9539 18C9.79843 18 6.42874 16.8405 3.79406 14.2059C1.16378 11.5756 0 8.20814 0 5.04608C0 2.25928 2.25464 0 5.04608 0C5.26173 0 5.45562 0.131273 5.5357 0.331488L7.79509 5.97994C7.90327 6.25036 7.77175 6.55724 7.50136 6.66541L5.01943 7.65816C5.195 10.5135 7.48698 12.8053 10.3418 12.9806L11.3346 10.4987C11.4426 10.2287 11.7493 10.0967 12.0201 10.2049L17.6685 12.4643C17.8687 12.5444 18 12.7383 18 12.9539C18 15.7407 15.7454 18 12.9539 18ZM4.69512 1.0698C2.67546 1.24457 1.05469 2.93818 1.05469 5.04608C1.05469 8.22449 2.2924 11.2127 4.53987 13.4601C6.7873 15.7076 9.77548 16.9453 12.9539 16.9453C15.0611 16.9453 16.7553 15.3255 16.9302 13.3049L12.118 11.38L11.1842 13.7146C11.1041 13.9148 10.9102 14.0461 10.6945 14.0461C6.9775 14.0461 3.95392 11.0225 3.95392 7.30603C3.95392 7.09042 4.08519 6.8959 4.28541 6.81585L6.61999 5.88199L4.69512 1.0698Z" fill="white"/>
</svg>
