<svg width="19" height="21" viewBox="0 0 19 21" fill="none" xmlns="http://www.w3.org/2000/svg">
<path d="M18.4093 6.25739C18.4093 6.07306 18.2641 5.92224 18.0798 5.91665C18.063 5.91665 16.4598 5.87196 15.108 4.88884C13.9629 4.05095 13.544 2.15173 13.477 1.47583V1.39204C13.477 1.20771 13.3261 1.05688 13.1418 1.05688H10.0695C9.8852 1.05688 9.73438 1.20771 9.73438 1.39204V3.64317C9.73438 3.82751 9.8852 3.97833 10.0695 3.97833C10.2539 3.97833 10.4047 3.82751 10.4047 3.64317V1.7272H12.829C12.963 2.72708 13.4881 4.54251 14.7059 5.43067C15.8454 6.26298 17.1246 6.49759 17.7223 6.56462V8.97774C16.957 8.92747 15.0857 8.66493 13.3317 7.40251C13.2312 7.32989 13.0971 7.31872 12.9854 7.37458C12.8737 7.43044 12.8011 7.54774 12.8011 7.67063V14.6419C12.8011 16.6193 11.79 18.418 10.0919 19.4514C9.93547 19.5463 9.88519 19.753 9.98016 19.9094C10.0416 20.0156 10.1533 20.0714 10.265 20.0714C10.3265 20.0714 10.3823 20.0547 10.4382 20.0211C11.3431 19.4681 12.1028 18.6917 12.6335 17.77C13.1809 16.8204 13.4658 15.7367 13.4658 14.6419V8.30185C15.622 9.62571 17.7893 9.66481 18.0518 9.66481C18.1412 9.66481 18.225 9.6313 18.2864 9.56427C18.3479 9.50282 18.387 9.41345 18.387 9.32966V6.3356C18.4093 6.31325 18.4093 6.28532 18.4093 6.25739Z" fill="black"/>
<path fill-rule="evenodd" clip-rule="evenodd" d="M9.54297 1.39222C9.54297 1.10019 9.78109 0.862061 10.0731 0.862061H13.1454C13.4374 0.862061 13.6755 1.10019 13.6755 1.39222V1.4662C13.7088 1.79072 13.8267 2.41135 14.0737 3.05156C14.3244 3.7012 14.6982 4.34476 15.2266 4.73152C15.8748 5.20287 16.5868 5.45143 17.1426 5.58174C17.6756 5.70667 18.0558 5.72079 18.082 5.72177C18.0831 5.72181 18.0836 5.72183 18.0834 5.72183H18.0893C18.3797 5.73063 18.6079 5.96863 18.6079 6.25757C18.6079 6.25851 18.608 6.25978 18.608 6.26136C18.6083 6.27836 18.6094 6.33072 18.5856 6.38814V9.32983C18.5856 9.46782 18.5244 9.60431 18.4309 9.69932C18.3298 9.8078 18.1936 9.85999 18.0554 9.85999C17.7908 9.85999 15.7634 9.82319 13.6644 8.6428V14.6421C13.6644 15.7705 13.3708 16.8878 12.806 17.8676C12.2589 18.8177 11.476 19.6178 10.5435 20.1877L10.5421 20.1885C10.4594 20.2382 10.3692 20.2666 10.2686 20.2666C10.0943 20.2666 9.91558 20.1795 9.81601 20.0091C9.66675 19.7611 9.74613 19.4357 9.9941 19.285C11.6343 18.2868 12.6096 16.5512 12.6096 14.6421V7.67081C12.6096 7.47327 12.7247 7.28888 12.9018 7.20034C13.0784 7.11202 13.2899 7.12952 13.4492 7.24442C15.0196 8.37471 16.6889 8.68484 17.5309 8.76637V6.73674C16.8657 6.6439 15.672 6.37535 14.5945 5.5884C13.9471 5.11617 13.4935 4.40581 13.1858 3.69882C12.9098 3.06465 12.7455 2.42008 12.6645 1.92237H10.6033V3.64335C10.6033 3.93538 10.3652 4.17351 10.0731 4.17351C9.78109 4.17351 9.54297 3.93538 9.54297 3.64335V1.39222ZM10.0731 1.25206C9.99648 1.25206 9.93297 1.31558 9.93297 1.39222V3.64335C9.93297 3.71999 9.99648 3.78351 10.0731 3.78351C10.1498 3.78351 10.2133 3.71999 10.2133 3.64335V1.53237H13.0032L13.0258 1.70146C13.0908 2.18615 13.2514 2.87215 13.5434 3.54319C13.8362 4.21593 14.2541 4.85736 14.8244 5.2733C15.9245 6.07681 17.1648 6.30566 17.7476 6.37101L17.9209 6.39044V9.18615L17.7131 9.1725C16.929 9.12099 15.0167 8.8531 13.2214 7.56095C13.1796 7.53079 13.1229 7.52582 13.0762 7.54917C13.0298 7.57235 12.9996 7.62257 12.9996 7.67081V14.6421C12.9996 16.6877 11.9529 18.5495 10.1968 19.6181C10.1327 19.6571 10.1112 19.7438 10.1504 19.8084L10.1525 19.8119C10.1761 19.8525 10.2202 19.8766 10.2686 19.8766C10.2908 19.8766 10.3122 19.8716 10.3409 19.8545C11.2178 19.3184 11.954 18.5658 12.4681 17.6729C12.9981 16.7534 13.2744 15.7033 13.2744 14.6421V7.95347L13.5714 8.13584C15.6827 9.43214 17.8075 9.46999 18.0554 9.46999C18.0947 9.46999 18.1248 9.45615 18.1463 9.43268L18.152 9.42643C18.1798 9.39866 18.1956 9.35796 18.1956 9.32983V6.255L18.2161 6.23444C18.2055 6.16583 18.1479 6.11387 18.0775 6.11174C17.9641 6.10874 16.3612 6.0389 14.9969 5.04672C14.3804 4.59557 13.9717 3.87032 13.7099 3.19197C13.4469 2.51039 13.3216 1.84934 13.2865 1.49525L13.2855 1.48565V1.39222C13.2855 1.31558 13.222 1.25206 13.1454 1.25206H10.0731ZM18.2178 6.26857C18.2178 6.26866 18.2178 6.26866 18.2178 6.26857V6.26857Z" fill="black"/>
<path d="M10.1672 19.42C9.08346 19.8896 9.08326 19.9272 7.48657 20.0998C4.38638 20.0998 1.56484 17.7476 1.56484 14.6474C1.56484 11.5472 4.08969 9.0224 7.18988 9.0224H7.82668V11.4244H7.18988C5.41355 11.4244 3.9668 12.8711 3.9668 14.6474C3.9668 16.4238 5.41355 17.8705 7.18988 17.8705C8.96621 17.8705 10.413 16.4238 10.413 14.6474V3.0644C10.413 2.88007 10.2621 2.72925 10.0778 2.72925C9.89347 2.72925 9.74265 2.88007 9.74265 3.0644V14.6419C9.74265 16.0495 8.59754 17.1946 7.18988 17.1946C5.78223 17.1946 4.63711 16.0495 4.63711 14.6419C4.63711 13.2342 5.78223 12.0891 7.18988 12.0891H8.16183C8.34617 12.0891 8.49699 11.9383 8.49699 11.7539V8.68166C8.49699 8.49732 8.34617 8.3465 8.16183 8.3465H7.18988C3.71543 8.3465 0.894531 11.173 0.894531 14.6419C0.894531 18.1163 4.0177 20.7645 7.48657 20.7645C8.46157 20.7645 9.65324 20.5332 10.413 20.0345C10.5682 19.9326 10.6699 19.7719 10.6029 19.5988C10.5303 19.4368 10.3348 19.3474 10.1672 19.42Z" fill="black"/>
<path fill-rule="evenodd" clip-rule="evenodd" d="M9.54734 3.06458C9.54734 2.77255 9.78547 2.53442 10.0775 2.53442C10.3695 2.53442 10.6077 2.77255 10.6077 3.06458V14.6476C10.6077 16.5316 9.07359 18.0657 7.18957 18.0657C5.30555 18.0657 3.77148 16.5316 3.77148 14.6476C3.77148 12.7636 5.30555 11.2295 7.18957 11.2295H7.63137V9.21757H7.18957C4.19707 9.21757 1.75953 11.6551 1.75953 14.6476C1.75953 17.6164 4.46609 19.8997 7.47583 19.905C8.27017 19.819 8.65195 19.7678 8.96852 19.6831C9.24382 19.6094 9.4712 19.5104 9.88543 19.3299C9.94875 19.3024 10.0164 19.2729 10.0893 19.2413C10.3652 19.1217 10.669 19.2704 10.7805 19.5192L10.7847 19.5285C10.9007 19.8282 10.7079 20.0741 10.5197 20.1977C9.71571 20.7254 8.48103 20.9597 7.48626 20.9597C3.92893 20.9597 0.699219 18.2425 0.699219 14.642C0.699219 11.0656 3.60731 8.15168 7.18957 8.15168H8.16152C8.45356 8.15168 8.69168 8.3898 8.69168 8.68183V11.7541C8.69168 12.0461 8.45356 12.2843 8.16152 12.2843H7.18957C5.88961 12.2843 4.8318 13.3421 4.8318 14.642C4.8318 15.942 5.88961 16.9998 7.18957 16.9998C8.48953 16.9998 9.54734 15.942 9.54734 14.642V3.06458ZM10.0775 2.92442C10.0009 2.92442 9.93734 2.98794 9.93734 3.06458V14.642C9.93734 16.1574 8.70492 17.3898 7.18957 17.3898C5.67422 17.3898 4.4418 16.1574 4.4418 14.642C4.4418 13.1267 5.67422 11.8943 7.18957 11.8943H8.16152C8.23816 11.8943 8.30168 11.8307 8.30168 11.7541V8.68183C8.30168 8.60519 8.23816 8.54168 8.16152 8.54168H7.18957C3.82292 8.54168 1.08922 11.2807 1.08922 14.642C1.08922 17.9905 4.10585 20.5697 7.48626 20.5697C8.44149 20.5697 9.59014 20.3413 10.3057 19.8716C10.3623 19.8345 10.3985 19.7931 10.4158 19.7579C10.43 19.7288 10.4325 19.7031 10.4225 19.6741C10.3873 19.6022 10.3024 19.574 10.2444 19.5991C10.1727 19.6302 10.1054 19.6595 10.0419 19.6873C9.63185 19.866 9.37478 19.9781 9.06933 20.0598C8.7171 20.1541 8.30241 20.2079 7.50722 20.2939L7.49677 20.295H7.48626C4.29978 20.295 1.36953 17.8757 1.36953 14.6476C1.36953 11.4397 3.98168 8.82757 7.18957 8.82757H8.02137V11.6195H7.18957C5.52094 11.6195 4.16148 12.979 4.16148 14.6476C4.16148 16.3162 5.52094 17.6757 7.18957 17.6757C8.8582 17.6757 10.2177 16.3162 10.2177 14.6476V3.06458C10.2177 2.98794 10.1541 2.92442 10.0775 2.92442Z" fill="black"/>
</svg>
