<svg width="30" height="30" viewBox="0 0 30 30" fill="none" xmlns="http://www.w3.org/2000/svg">
<g clip-path="url(#clip0_6241_215)">
<path d="M27.5112 23.8844H23.9361C23.3862 23.8857 22.8664 23.6326 22.5282 23.199L19.0424 18.7525C18.886 18.5527 18.6202 18.4737 18.38 18.5561C18.1399 18.6384 17.9782 18.8636 17.9774 19.1174V20.905C17.9774 22.5511 16.3759 23.8844 14.4022 23.8844C13.6306 23.8914 12.8732 23.6769 12.2199 23.2662C7.21454 20.0633 3.81808 16.019 0.868741 9.74762C0.608851 9.19423 0.649875 8.54636 0.97741 8.03008C1.30494 7.51379 1.8736 7.20087 2.48503 7.20022H6.0602C6.7755 7.19847 7.42293 7.62333 7.70617 8.28015L8.10833 9.21867C8.71605 10.6285 9.53194 11.9393 10.5292 13.1068C10.5617 13.1417 10.6079 13.1609 10.6557 13.1589C10.6996 13.1631 10.7434 13.1484 10.776 13.1185C10.8087 13.0889 10.8272 13.0465 10.827 13.0025V10.6711C10.0092 10.3789 9.51994 9.54119 9.66679 8.68536C9.81365 7.82954 10.5545 7.20306 11.423 7.20022H16.1898C17.177 7.20022 17.9774 8.00062 17.9774 8.9878V13.1589C17.9778 13.4249 18.1546 13.6584 18.4105 13.7311C18.6665 13.8037 18.9395 13.6979 19.0798 13.4716L22.409 8.0567C22.7317 7.5223 23.3118 7.19695 23.9361 7.20022H27.5112C28.1717 7.20044 28.7782 7.56507 29.0885 8.14813C29.3987 8.73119 29.3621 9.43797 28.9933 9.9859L25.2394 15.1922C25.0878 15.401 25.0878 15.6836 25.2394 15.8924L28.9636 21.054C29.3547 21.5987 29.4081 22.3164 29.102 22.9129C28.7958 23.5095 28.1816 23.8844 27.5112 23.8844ZM18.5733 17.3298C19.1232 17.3287 19.6427 17.5816 19.981 18.0152L23.4667 22.4617C23.5793 22.6068 23.7523 22.6921 23.9361 22.6925H27.5112C27.7355 22.6934 27.9413 22.568 28.0434 22.3683C28.1458 22.1684 28.127 21.9284 27.9952 21.7466L24.2712 16.585C23.82 15.9603 23.82 15.1169 24.2712 14.4922L28.0177 9.30072C28.0766 9.20689 28.1076 9.09844 28.1069 8.9878C28.1069 8.65874 27.8403 8.39187 27.5112 8.39187H23.9361C23.7294 8.39209 23.5378 8.49923 23.4296 8.67489L20.1001 14.0898C19.6833 14.7745 18.8616 15.0982 18.0897 14.8812C17.3179 14.6646 16.7851 13.9604 16.7857 13.1589V8.9878C16.7857 8.65874 16.5188 8.39187 16.1898 8.39187H11.423C11.0937 8.39187 10.827 8.65874 10.827 8.9878C10.827 9.31687 11.0937 9.58374 11.423 9.58374H12.0187V13.0025C12.0119 13.5678 11.6569 14.0704 11.126 14.2657C10.5953 14.4608 9.99913 14.3078 9.62773 13.8814C8.55435 12.6243 7.6754 11.2133 7.02098 9.69546L6.61118 8.75694C6.51801 8.53523 6.30067 8.39122 6.0602 8.39187H2.48503C2.28166 8.39296 2.0929 8.4977 1.98424 8.66965C1.87557 8.8416 1.86226 9.05698 1.94867 9.24115C4.83124 15.3709 7.9966 19.1473 12.8677 22.2681C13.3292 22.5507 13.861 22.698 14.4022 22.6925C15.713 22.6925 16.7857 21.8882 16.7857 20.905V19.1174C16.7857 18.1302 17.5859 17.3298 18.5733 17.3298Z" fill="black"/>
</g>
<defs>
<clipPath id="clip0_6241_215">
<rect width="28.6" height="28.6" fill="white" transform="translate(0.699219 0.699951)"/>
</clipPath>
</defs>
</svg>
