<svg width="22" height="22" viewBox="0 0 22 22" fill="none" xmlns="http://www.w3.org/2000/svg">
<path d="M16.2053 13.1716C16.0886 13.1 15.9564 13.0188 15.7971 12.9141C15.7082 12.8555 15.5965 12.7754 15.478 12.6905C14.8701 12.2549 14.4095 11.9465 14.0173 11.9465C13.9255 11.9465 13.8386 11.9635 13.7594 11.9969C13.4159 12.1413 13.1338 12.5272 12.861 12.9003C12.761 13.037 12.6179 13.2327 12.5311 13.3201C12.1866 13.2518 11.4601 12.7604 10.6761 11.9045C9.89124 11.0476 9.44109 10.2535 9.3793 9.87834C9.45932 9.78319 9.63996 9.6258 9.76595 9.51594C10.1064 9.2192 10.4584 8.91236 10.5915 8.53845C10.7612 8.05805 10.4502 7.4835 9.95621 6.66195C9.8785 6.53264 9.80506 6.41052 9.75178 6.31422C9.65556 6.13965 9.5812 5.99522 9.51559 5.86792C9.24628 5.34537 9.06834 5 8.39972 5C7.96577 5 7.35223 5.4477 6.93664 5.89168C6.33268 6.53706 6 7.28216 6 7.99118C6.00115 9.91692 6.98556 12.1241 8.70083 14.0489C8.70378 14.0521 8.70672 14.053 8.70976 14.0562C10.4728 15.9289 12.4955 17 14.2594 17H14.2601C14.9086 17 15.5913 16.641 16.1824 15.9819C16.5894 15.5282 17 14.8633 17 14.3898C17 13.6599 16.6839 13.4657 16.2053 13.1716ZM14.2595 16.0051C12.7571 16.0039 10.9244 15.0098 9.35606 13.3459C7.83178 11.6334 6.92128 9.63233 6.92031 7.99219C6.92031 7.00008 8.09954 6.05681 8.40792 6.00512C8.47091 6.00542 8.50394 6.00949 8.51968 6.0124C8.56045 6.06364 8.64148 6.22088 8.71363 6.36088C8.77892 6.48758 8.86022 6.64532 8.96375 6.83315C9.02633 6.94633 9.10437 7.07609 9.18696 7.21343C9.34327 7.47345 9.65749 7.99611 9.71046 8.2192C9.62188 8.3561 9.34704 8.59562 9.19189 8.73085C8.79475 9.07703 8.45177 9.37593 8.45177 9.79836C8.45273 10.8187 9.65657 12.2123 10.0255 12.6151C10.3944 13.0179 11.6708 14.3322 12.6074 14.3332C12.9919 14.3318 13.2645 13.9589 13.5803 13.5272C13.7048 13.3569 13.9255 13.055 14.0514 12.9588C14.2555 13.0163 14.7348 13.3597 14.9732 13.5306C15.099 13.6207 15.2178 13.7058 15.3221 13.7746C15.4935 13.8872 15.638 13.976 15.7541 14.0473C15.8822 14.1261 16.0263 14.2146 16.0732 14.2591C16.0759 14.2762 16.0796 14.3123 16.0799 14.381C16.0322 14.7174 15.1679 16.0039 14.2595 16.0051Z" fill="black"/>
<path d="M20.9991 10.9682C20.9646 8.33902 19.8962 5.85455 17.991 3.97245C16.0506 2.05565 13.4893 1 10.7788 1C8.16235 1 5.71467 1.99455 3.88657 3.80037C2.26434 5.40287 1.26908 7.54015 1.08394 9.81858C0.908365 11.9803 1.46544 14.1679 2.655 16.0072L1.03061 20.3447C0.962442 20.5267 1.01031 20.7314 1.1525 20.8654C1.24593 20.9535 1.36832 21 1.49263 21C1.55744 21 1.62285 20.9815 1.68486 20.9554L5.91547 19.177C7.53051 20.17 9.37722 20.6818 11.2735 20.6818H11.2737C13.8897 20.6818 16.3373 19.6991 18.1652 17.8935C20.0273 16.054 21.0338 13.6022 20.9991 10.9682ZM17.4686 17.2173C15.8266 18.8392 13.6265 19.7324 11.2734 19.7324C9.48203 19.7323 7.73914 19.2144 6.23314 18.2344C6.15148 18.1813 6.05712 18.1542 5.96221 18.1542C5.89705 18.1542 5.83164 18.167 5.76993 18.1929L2.35014 19.6257L3.66514 16.1144C3.72015 15.9674 3.70016 15.8033 3.61146 15.6734C1.19441 12.1362 1.60305 7.4322 4.58308 4.48845C6.22511 2.86639 8.42545 1.97304 10.7788 1.97304C13.2261 1.97304 15.5401 2.92745 17.2944 4.66049C19.0171 6.36214 19.9829 8.60676 20.0142 10.9809C20.0453 13.3501 19.1413 15.5649 17.4686 17.2173Z" fill="black"/>
</svg>
