<svg width="28" height="28" viewBox="0 0 28 28" fill="none" xmlns="http://www.w3.org/2000/svg">
<g clip-path="url(#clip0_6241_208)">
<path d="M22.3478 3.62134H5.90536C2.91183 3.62134 0.476562 6.06441 0.476562 9.06685V18.2324C0.476562 21.2354 2.91183 23.6779 5.90536 23.6779H22.3478C25.3413 23.6779 27.7766 21.2349 27.7766 18.2324V9.06685C27.7766 6.06441 25.3413 3.62134 22.3478 3.62134ZM26.6623 18.233C26.6623 20.6214 24.7268 22.5642 22.3478 22.5642H5.90536C3.52636 22.5642 1.59085 20.6209 1.59085 18.233V9.06685C1.59085 6.67894 3.52636 4.73562 5.90536 4.73562H22.3478C24.7268 4.73562 26.6623 6.67894 26.6623 9.06685V18.233Z" fill="black"/>
<path d="M19.0616 13.4482L11.3424 8.92703C11.1708 8.82674 10.9574 8.82507 10.7841 8.92424C10.6109 9.02341 10.5039 9.20783 10.5039 9.40784V18.4497C10.5039 18.6492 10.6109 18.8341 10.7836 18.9333C10.8694 18.9823 10.9652 19.0069 11.061 19.0069C11.1585 19.0069 11.2555 18.9812 11.3424 18.9305L19.0616 14.4104C19.2321 14.3107 19.3374 14.1274 19.3374 13.9296C19.3374 13.7318 19.2327 13.548 19.0616 13.4482ZM11.6182 17.4775V10.3795L17.6777 13.9291L11.6182 17.4775Z" fill="black"/>
</g>
<defs>
<clipPath id="clip0_6241_208">
<rect width="27.3" height="27.3" fill="white" transform="translate(0.476562 -0.00012207)"/>
</clipPath>
</defs>
</svg>
